<?xml version="1.0" encoding="UTF-8" standalone="no"?>
<!DOCTYPE svg PUBLIC "-//W3C//DTD SVG 1.1//EN" "http://www.w3.org/Graphics/SVG/1.1/DTD/svg11.dtd">
<svg width="100%" height="100%" viewBox="0 0 433 250" version="1.1" xmlns="http://www.w3.org/2000/svg" xmlns:xlink="http://www.w3.org/1999/xlink" xml:space="preserve" xmlns:serif="http://www.serif.com/" style="fill-rule:evenodd;clip-rule:evenodd;stroke-linejoin:round;stroke-miterlimit:2;">
    <g transform="matrix(0.555644,0,0,0.554975,-69.541064,-159.137325)">
        <path d="M897.276,286.869L889.819,286.869C850.735,286.808 819.017,318.46 819.017,357.539L819.017,515.589C819.017,547.15 792.93,572.716 761.882,572.716C743.436,572.716 725.02,563.433 714.093,547.85L552.673,317.304C539.28,298.16 517.486,286.747 493.895,286.747C457.094,286.747 423.976,318.034 423.976,356.657L423.976,515.619C423.976,547.181 398.103,572.746 366.842,572.746C348.335,572.746 329.949,563.463 319.021,547.881L138.395,289.882C134.316,284.038 125.154,286.93 125.154,294.052L125.154,431.892C125.154,438.862 127.285,445.619 131.272,451.34L309.037,705.2C319.539,720.204 335.033,731.344 352.9,735.392C397.616,745.557 438.77,711.135 438.77,667.278L438.77,508.406C438.77,476.845 464.339,451.279 495.904,451.279L495.995,451.279C515.02,451.279 532.857,460.562 543.785,476.145L705.235,706.661C718.659,725.835 739.327,737.218 763.983,737.218C801.606,737.218 833.841,705.9 833.841,667.308L833.841,508.376C833.841,476.815 859.41,451.249 890.975,451.249L897.276,451.249C901.233,451.249 904.43,448.053 904.43,444.097L904.43,294.021C904.43,290.065 901.233,286.869 897.276,286.869Z" style="fill:rgb(11,16,15);fill-rule:nonzero;"/>
    </g>
</svg>
